<svg xmlns="http://www.w3.org/2000/svg" viewBox="0 0 32 32" id="chand-night">
  <path d="M25.485 13.52a3.476 3.476 0 0 1-1.025-2.474V8.04a.5.5 0 0 0-.5-.5h-3.006a3.474 3.474 0 0 1-2.475-1.025l-2.126-2.126a.5.5 0 0 0-.707 0L13.52 6.515a3.476 3.476 0 0 1-2.474 1.025H8.04a.5.5 0 0 0-.5.5v3.006a3.476 3.476 0 0 1-1.025 2.475l-2.126 2.126a.5.5 0 0 0 0 .707l2.126 2.126a3.474 3.474 0 0 1 1.025 2.474v3.006a.5.5 0 0 0 .5.5h3.006a3.476 3.476 0 0 1 2.475 1.025l2.126 2.126a.5.5 0 0 0 .707 0l2.126-2.126a3.474 3.474 0 0 1 2.474-1.025h3.006a.5.5 0 0 0 .5-.5v-3.006a3.474 3.474 0 0 1 1.025-2.475l2.126-2.126a.5.5 0 0 0 0-.707Zm-.707 4.252a4.467 4.467 0 0 0-1.318 3.182v2.506h-2.506a4.467 4.467 0 0 0-3.182 1.318L16 26.551l-1.772-1.773a4.467 4.467 0 0 0-3.182-1.318H8.54v-2.506a4.465 4.465 0 0 0-1.318-3.182L5.45 16l1.772-1.772a4.469 4.469 0 0 0 1.318-3.182V8.54h2.506a4.469 4.469 0 0 0 3.182-1.318L16 5.45l1.772 1.772a4.465 4.465 0 0 0 3.182 1.318h2.506v2.506a4.467 4.467 0 0 0 1.318 3.182L26.551 16Zm-2.551-4.876-1.757-.272-.773-1.602a.697.697 0 0 0-.624-.395.66.66 0 0 0-.633.385l-.8 1.587-1.762.24a.7.7 0 0 0-.4 1.191l1.262 1.253-.317 1.75a.7.7 0 0 0 1.01.747l1.582-.813 1.565.842a.7.7 0 0 0 1.024-.729l-.285-1.755 1.286-1.23a.7.7 0 0 0-.378-1.199Zm-1.71 1.813a.696.696 0 0 0-.21.62l.213 1.312-1.17-.628a.7.7 0 0 0-.653-.007l-1.181.608.236-1.308a.7.7 0 0 0-.195-.622l-.944-.936 1.316-.18a.697.697 0 0 0 .532-.378l.599-1.187.577 1.196a.696.696 0 0 0 .524.39l1.314.203Zm.538 5.636a6.555 6.555 0 0 1-6.097-10.562.697.697 0 0 0 .02-.844.689.689 0 0 0-.8-.251 7.357 7.357 0 0 0-2.293 1.31 7.644 7.644 0 0 0-2.702 5.642 7.408 7.408 0 0 0 2.362 5.672 7.641 7.641 0 0 0 7.155 1.786 7.379 7.379 0 0 0 2.915-1.53.69.69 0 0 0 .182-.818.7.7 0 0 0-.742-.405Zm-2.613 1.786a6.63 6.63 0 0 1-6.212-1.547 6.422 6.422 0 0 1-2.048-4.917 6.643 6.643 0 0 1 2.347-4.904 6.316 6.316 0 0 1 1.034-.708 7.557 7.557 0 0 0 6.513 11.362h.047a6.393 6.393 0 0 1-1.68.714Zm12.704-7.192-3.54-3.54a.505.505 0 0 1-.146-.353V6.04a1.502 1.502 0 0 0-1.5-1.5h-5.006a.498.498 0 0 1-.353-.146L17.06.854a1.501 1.501 0 0 0-2.122 0l-3.54 3.54a.503.503 0 0 1-.353.146H6.04a1.502 1.502 0 0 0-1.5 1.5v5.006a.503.503 0 0 1-.146.353l-3.54 3.54a1.501 1.501 0 0 0 0 2.122l3.54 3.54a.498.498 0 0 1 .146.353v5.006a1.502 1.502 0 0 0 1.5 1.5h5.006a.505.505 0 0 1 .353.146l3.54 3.54a1.502 1.502 0 0 0 2.122 0l3.54-3.54a.496.496 0 0 1 .353-.146h5.006a1.502 1.502 0 0 0 1.5-1.5v-5.006a.496.496 0 0 1 .146-.353l3.54-3.54a1.501 1.501 0 0 0 0-2.122Zm-.707 1.415-3.54 3.54a1.49 1.49 0 0 0-.439 1.06v5.006a.501.501 0 0 1-.5.5h-5.006a1.49 1.49 0 0 0-1.06.44l-3.54 3.54a.5.5 0 0 1-.707 0l-3.54-3.54a1.49 1.49 0 0 0-1.061-.44H6.04a.5.5 0 0 1-.5-.5v-5.006a1.49 1.49 0 0 0-.44-1.06l-3.54-3.54a.5.5 0 0 1 0-.707l3.54-3.54a1.49 1.49 0 0 0 .44-1.061V6.04a.5.5 0 0 1 .5-.5h5.006a1.49 1.49 0 0 0 1.06-.44l3.54-3.54a.5.5 0 0 1 .707 0l3.54 3.54a1.49 1.49 0 0 0 1.061.44h5.006a.5.5 0 0 1 .5.5v5.006a1.49 1.49 0 0 0 .44 1.06l3.54 3.54a.5.5 0 0 1 0 .708Z"></path>
</svg>
