<svg xmlns="http://www.w3.org/2000/svg" viewBox="0 0 32 32" id="macca">
  <path d="M.5,16.41992a.50014.50014,0,0,1-.5-.5v-3a.49968.49968,0,0,1,.44775-.49707l2-.21A.49983.49983,0,0,1,3,12.71v3a.49968.49968,0,0,1-.44775.49707l-2,.21A.47345.47345,0,0,1,.5,16.41992Zm.5-3.0498v1.99463l1-.105V13.26514Z"></path>
  <path d="M30.78516,2.85254,16.28369.04541c-.03656-.00708-.0733-.0061-.11-.01038a.45078.45078,0,0,0-.34919.00031c-.03656.00427-.07312.00372-.10968.01056L1.21533,2.85254A1.502,1.502,0,0,0,0,4.3252V27.6748a1.502,1.502,0,0,0,1.21484,1.47266l14.50147,2.80713c.03668.007.07355.00616.11029.01044a.45061.45061,0,0,0,.34912-.00043c.0365-.00433.07294-.0036.10944-.0105l14.49951-2.80664A1.502,1.502,0,0,0,32,27.6748V4.3252A1.502,1.502,0,0,0,30.78516,2.85254ZM15.5,30.89423,1.40479,28.166A.501.501,0,0,1,1,27.6748V26.106l14.5,2.80639Zm0-3.00025L1,25.08765V10.93982l14.5-1.8714Zm0-19.8338L1,9.93115V7.93945l14.5-1.871Zm0-3L1,6.93115V4.3252A.501.501,0,0,1,1.40527,3.834L15.5,1.106ZM31,27.6748a.501.501,0,0,1-.40527.49122L16.5,30.894V28.91235L31,26.106Zm-12.5-.1679V12.05713l5.5.59766V26.44238ZM31,15.36426l-4-.42383V12.9458l4,.42383Zm0-3-4.44727-.47119a.50465.50465,0,0,0-.3872.12548A.49956.49956,0,0,0,26,12.39014v3a.49961.49961,0,0,0,.44727.49707L31,16.36963v8.718l-6,1.16119V12.20605a.49984.49984,0,0,0-.4458-.49707l-6.5-.70605a.4851.4851,0,0,0-.38818.125A.50027.50027,0,0,0,17.5,11.5V27.70044l-1,.19354V9.06842L31,10.93982Zm0-2.43311-14.5-1.871V6.06842L31,7.93945Zm0-3-14.5-1.871V1.10577L30.59521,3.834A.501.501,0,0,1,31,4.3252ZM4.5,16a.46924.46924,0,0,0,.05225-.00293l9.5-1A.49968.49968,0,0,0,14.5,14.5v-3a.49983.49983,0,0,0-.55225-.49707l-9.5,1A.49968.49968,0,0,0,4,12.5v3a.50014.50014,0,0,0,.5.5ZM5,12.9502l8.5-.895V14.0498l-8.5.895Z"></path>
</svg>
