<svg xmlns="http://www.w3.org/2000/svg" viewBox="0 0 32 32" id="muslim-man">
  <path d="M25.26,17.72l-2.83-.68-.34-.08a4.57034,4.57034,0,0,1-2.84-2.11A6.41979,6.41979,0,0,0,21.35,11h.05a1.503,1.503,0,0,0,1.25-.67l.66-1A1.49365,1.49365,0,0,0,22.06,7h-.12l.057-.40839L22,6.57666V5.99951a6,6,0,0,0-12,0v.57715l.003.01495L10.06,7H9.94A1.49365,1.49365,0,0,0,8.69,9.33l.66,1A1.503,1.503,0,0,0,10.6,11h.05a6.41979,6.41979,0,0,0,2.1,3.85,4.57034,4.57034,0,0,1-2.84,2.11l-.34.08-2.83.68A7.48691,7.48691,0,0,0,1,25.01V29.5A2.50091,2.50091,0,0,0,3.5,32h25A2.50091,2.50091,0,0,0,31,29.5V25.01A7.48691,7.48691,0,0,0,25.26,17.72ZM21.79,8h.27a.49585.49585,0,0,1,.42.78l-.67,1a.48658.48658,0,0,1-.31.21ZM10.19,9.78l-.67-1A.49585.49585,0,0,1,9.94,8h.27l.29,1.99A.48658.48658,0,0,1,10.19,9.78ZM16,.99951a5.00168,5.00168,0,0,1,4.99255,4.92633,29.99949,29.99949,0,0,0-9.9851,0A5.00168,5.00168,0,0,1,16,.99951ZM11.22,8l-.14-1-.01-.08a29.1448,29.1448,0,0,1,9.86,0L20.92,7,20.78,8l-.16541,1.14038-2.56677,3.02954-.40039-.6001A1.2804,1.2804,0,0,0,16.58105,11H15.419a1.28192,1.28192,0,0,0-1.06739.5708l-.40429.60645L11.40088,9.24768Zm.46741,3.10126L13.37207,13.04a.786.786,0,0,0,.59668.272c.01758,0,.03516-.00049.05273-.002a.7844.7844,0,0,0,.60645-.35059l.55469-.833A.28549.28549,0,0,1,15.419,12h1.1621a.284.284,0,0,1,.23536.12549l.55273.8291a.78474.78474,0,0,0,.61328.35205.82276.82276,0,0,0,.64942-.27881l1.70337-2.01007A5.42158,5.42158,0,0,1,18.66,14.03a4.94959,4.94959,0,0,1-.67.54l-.65.43-.51.34a1.47828,1.47828,0,0,1-1.66,0L14.66,15l-.65-.43a4.94959,4.94959,0,0,1-.67-.54A5.41566,5.41566,0,0,1,11.68738,11.10126ZM13.56,15.47l1.05.71a2.5102,2.5102,0,0,0,2.78,0l1.05-.71a5.59778,5.59778,0,0,0,1.3465,1.45142,4.48814,4.48814,0,0,1-7.573,0A5.59778,5.59778,0,0,0,13.56,15.47Zm-2.19733,1.984a5.49623,5.49623,0,0,0,9.27466,0,5.62775,5.62775,0,0,0,.92377.37091,6.4576,6.4576,0,0,1-11.1222,0A5.62775,5.62775,0,0,0,11.36267,17.454ZM30,29.5A1.498,1.498,0,0,1,28.5,31H26V25.5a.5.5,0,0,0-1,0V31H7V25.5a.5.5,0,0,0-1,0V31H3.5A1.498,1.498,0,0,1,2,29.5V25.01a6.49393,6.49393,0,0,1,4.97-6.32L9.444,18.09424a7.45511,7.45511,0,0,0,13.11194,0L25.03,18.69A6.49393,6.49393,0,0,1,30,25.01ZM16,23a.5.5,0,1,0,.5.5A.5.5,0,0,0,16,23Zm0,2a.5.5,0,1,0,.5.5A.5.5,0,0,0,16,25Zm0,2a.5.5,0,1,0,.5.5A.5.5,0,0,0,16,27Zm0,2a.5.5,0,1,0,.5.5A.5.5,0,0,0,16,29Z"></path>
</svg>
