<svg xmlns="http://www.w3.org/2000/svg" viewBox="0 0 32 32" id="namaz">
  <path d="M30.27,26.13a2.92391,2.92391,0,0,0-1.13-.39l-1.48-.2a2.64993,2.64993,0,0,0-1.19.11L25,24.84v-.13a3.49866,3.49866,0,0,0-2.46-3.35l-7.98-2.49a5.4995,5.4995,0,0,0-7.12,4.75L7.04181,28H2.94141A2.49743,2.49743,0,0,0,.56934,29.709L.02539,31.3418A.50048.50048,0,0,0,.5,32H14.08a3.16246,3.16246,0,0,0,2.63-1.41,2.90772,2.90772,0,0,0,.23-.42l3.48,1.76a.42852.42852,0,0,0,.22.06.46484.46484,0,0,0,.23-.06.40477.40477,0,0,1,.09-.05c.25995.04.50995.07.77.09q.375.03.75.03a8.877,8.877,0,0,0,1.15-.07.48837.48837,0,0,0,.43-.4c.15-.79-1.07-1.9-1.86-2.09-.23-.06-.46-.12-.69-.2l.02-.11a.50051.50051,0,0,0-.24005-.5l-.74-.45,2.83-.17.95.49-.13,1.04a1.89079,1.89079,0,0,0,1.62,2.1l2.41.31.12.02h.03a2.18409,2.18409,0,0,0,.36.03,2.59106,2.59106,0,0,0,.68-.09,2.78252,2.78252,0,0,0,2.44-2.21l.08-.41A2.81752,2.81752,0,0,0,30.27,26.13Zm-8.92,4.11c.2.07.41.12.61.17a2.12212,2.12212,0,0,1,.85.58,6.67336,6.67336,0,0,1-1-.02,5.50363,5.50363,0,0,1-.57-.06ZM3,31H1.19336l.32471-.97461A1.4992,1.4992,0,0,1,2.94141,29H3Zm21-5.62-.82,1.64-.33.02-2.86.18.59-.68a.50329.50329,0,1,0-.76-.66L18.58,27.3l-.1.12a.51879.51879,0,0,0-.11.41.48229.48229,0,0,0,.23.35l.19.11,1.21.73.49.29-.23,1.42-.48-.25-2.57-1.3-1-.5-.05-.03a.53749.53749,0,0,1-.26-.33.46725.46725,0,0,1,.08-.41l.02-.03.63-.89,1.22-1.73a.49857.49857,0,0,0-.12-.7.50747.50747,0,0,0-.7.12l-1.09,1.55-1.09-1.08a.495.495,0,1,0-.7.7l1.2,1.21-.19.28a1.498,1.498,0,0,0,.55005,2.2l.34.17a2.11077,2.11077,0,0,1-.18.33,2.1499,2.1499,0,0,1-1.79.96H4V29h6.5a.5.5,0,0,0,0-1H8.04919L8.44,23.71a4.43257,4.43257,0,0,1,1.98-3.33,4.50641,4.50641,0,0,1,3.84-.56l7.99,2.5a2.5027,2.5027,0,0,1,1.74,2.2,1.14747,1.14747,0,0,1,.01.19Zm.52,2.1-.36-.19.7-1.39.55.3A2.78671,2.78671,0,0,0,24.52,27.48Zm3.42,3.43-1.99-.26a.88894.88894,0,0,1-.76-.98l.18-1.47a.23479.23479,0,0,1,.02-.08,1.86961,1.86961,0,0,1,.59449-1.08558,13.46613,13.46613,0,0,1,1.38366.84156c.33594.23626.65369.49749.96485.7619Zm.58655-3.391c-.19586-.15338-.38037-.31842-.58417-.46136-.26172-.18341-.53155-.35767-.80633-.52375a1.7321,1.7321,0,0,1,.394.00611l1.13995.15ZM30.96,29.09l-.08.41a1.78732,1.78732,0,0,1-1.65,1.43l-.28.01.68-3.99.13.05.04.01A1.83713,1.83713,0,0,1,30.96,29.09ZM16.74023,7.875l-.31689,1.75a.70065.70065,0,0,0,1.00977.74707l1.58154-.81348,1.56543.8418a.7044.7044,0,0,0,.334.085.7017.7017,0,0,0,.68994-.81347L21.31934,7.916,22.603,6.6875a.70066.70066,0,0,0-.376-1.19922L20.46924,5.2168l-.77246-1.60254a.69544.69544,0,0,0-.625-.39551h-.00586a.69614.69614,0,0,0-.625.38477l-.80176,1.58691-1.76172.24023A.70007.70007,0,0,0,15.478,6.62109Zm1.189-1.71484a.69736.69736,0,0,0,.53174-.37793l.59912-1.18555.57861,1.2002a.70161.70161,0,0,0,.522.38378l1.31348.20313-.9624.9209a.70121.70121,0,0,0-.20459.61621l.2124,1.31152-1.16992-.6289a.70128.70128,0,0,0-.33008-.083.71252.71252,0,0,0-.32178.07715l-1.18212.60742L17.752,7.89844a.69444.69444,0,0,0-.19531-.62207l-.94336-.93653Zm-1.18115,9.78418a7.60008,7.60008,0,0,0,1.95263-.25489,7.3893,7.3893,0,0,0,2.91553-1.53125.6991.6991,0,0,0-.56152-1.2207A6.55584,6.55584,0,0,1,14.958,2.375a.70019.70019,0,0,0-.77979-1.0957,7.37752,7.37752,0,0,0-2.293,1.31054A7.64343,7.64343,0,0,0,9.18262,8.23145a7.4083,7.4083,0,0,0,2.36279,5.67285A7.61139,7.61139,0,0,0,16.74805,15.94434ZM12.52881,3.35547h.00049a6.37219,6.37219,0,0,1,1.0332-.709,7.55827,7.55827,0,0,0,6.51123,11.36329c.0166,0,.03272,0,.04883-.001a6.37979,6.37979,0,0,1-1.67969.71387A6.62921,6.62921,0,0,1,12.23,13.17578a6.422,6.422,0,0,1-2.04785-4.917A6.64306,6.64306,0,0,1,12.52881,3.35547Z"></path>
</svg>
