<svg xmlns="http://www.w3.org/2000/svg" viewBox="0 0 32 32" id="praying-man">
  <path d="M24.26038,10.623a11.13156,11.13156,0,0,0,.20544-1.40229,11.39587,11.39587,0,0,0-.0459-2.21191.4975.4975,0,0,0-.40527-.43262C23.165,6.41211,21.88379,7.81738,21.668,8.69238A10.23245,10.23245,0,0,1,21.10541,10.32a.53048.53048,0,0,0-.27539.16L18.22,13.95l-.99-.51a5.6913,5.6913,0,0,0-1.18-2.74l.44-.88a1.62872,1.62872,0,0,0,.22.00995,3.7734,3.7734,0,0,0,3.32-1.96l.91-1.67L21,6.09a3.71858,3.71858,0,0,0,.42-1.35A3.56842,3.56842,0,0,0,19.89.86l-.47-.3A3.63388,3.63388,0,0,0,14.78,1.22l-.03.03a3.30075,3.30075,0,0,0-.61774.67969.49818.49818,0,0,0-.1596.18457l-.93219,1.72589L12.92,4.06c-.01825.03418-.027.07135-.04419.10589a3.67906,3.67906,0,0,0-.22619.542c-.02588.08136-.03742.16485-.05768.24737a3.65787,3.65787,0,0,0-.08478.41443c-.01532.12012-.015.24048-.01837.36151-.00238.1015-.00739.20209-.00128.30371a3.62152,3.62152,0,0,0,.05438.42121c.009.05059.00848.10192.01965.15228a.48006.48006,0,0,0,.02039.04938c.01874.0805.02374.16241.04809.24218a3.79506,3.79506,0,0,0,.18.47l-.99,1.9A1.75414,1.75414,0,0,0,11.5,9.39a3.3214,3.3214,0,0,0-1,.9,28.952,28.952,0,0,0-2.11,3.24,17.52144,17.52144,0,0,0-1.03,2.15,15.50841,15.50841,0,0,0-.72,2.22,17.0183,17.0183,0,0,0-.43,4.77,19.78359,19.78359,0,0,0,.29,2.58c.07.41.13.82.2,1.23.03.22.06.44.1.66H5.92l-.00311.00062H5.91016a3.09852,3.09852,0,0,0-1.68164.47656,3.25045,3.25045,0,0,0-1.082,1.291c-.07324.13184-.14941.26758-.23632.40723a5.70758,5.70758,0,0,1-1.81446,1.7627A.49957.49957,0,0,0,1.36328,32H5.917l.00147-.00031L5.92,32H20.49a2.58237,2.58237,0,0,0,2.38-1.52,2.54365,2.54365,0,0,0-.33-2.65,1.626,1.626,0,0,0-.04-1.47,8.04808,8.04808,0,0,0-3.2-3.19c-.37-.25-.74-.49-1.09-.76-.51-.38-2.11-1.72-1.62-3.19.08-.24.17-.46.25-.68l.14.07a3.271,3.271,0,0,0,1.47.35,3.35778,3.35778,0,0,0,3-1.83l2.98-5.86a.51848.51848,0,0,0-.01-.47A.48491.48491,0,0,0,24.26038,10.623ZM22.63867,8.93066a2.72172,2.72172,0,0,1,.84473-1.15234,10.29972,10.29972,0,0,1-.01465,1.36719,10.13934,10.13934,0,0,1-.18738,1.32641l-.37256-.03387-.73108-.06793A11.11221,11.11221,0,0,0,22.63867,8.93066ZM19.15,7.39a2.74408,2.74408,0,0,1-2.3,1.43.61757.61757,0,0,1-.14.00995l-.79-.12a2.57547,2.57547,0,0,1-.52-.21l-.47-.25a2.71888,2.71888,0,0,1-.99-.88,2.88815,2.88815,0,0,1-.30835-.64081A17.481,17.481,0,0,1,15.457,5.31641c.48749-.32557.99127-.62391,1.49738-.90009L19.84,6.13ZM13.51038,5.43378c.00329-.02277.01007-.04493.014-.06763A2.85292,2.85292,0,0,1,13.8,4.54l.1488-.274.675-1.2337,1.33435.79248q-.53577.31347-1.05682.66064c-.48426.32379-.94507.66644-1.39673,1.03522C13.50793,5.49176,13.50616,5.46252,13.51038,5.43378ZM18.88,1.41l.47.3a2.53223,2.53223,0,0,1,1.09,2.81L20.41,4.64l-.18.56L17.2168,3.41016h0L15.23364,2.22565,15.51,1.9l.02-.02A2.61381,2.61381,0,0,1,18.88,1.41ZM14.46,9.13l.47.25q.27.135.54.24l-.22.45A5.43233,5.43233,0,0,0,14.29,9.58a5.75166,5.75166,0,0,0-1.33-.34l.48-.91A3.65543,3.65543,0,0,0,14.46,9.13ZM5.417,31H2.81445a6.0845,6.0845,0,0,0,.94336-1.1543c.09571-.15332.18067-.30371.26172-.45019a2.33932,2.33932,0,0,1,.75488-.94043,1.901,1.901,0,0,1,.64258-.26074Zm16.533-.93a1.57212,1.57212,0,0,1-1.46.93H6.42V28.14H7.45a.10862.10862,0,0,0,.05-.01,15.9623,15.9623,0,0,1,2.17-.05,9.07628,9.07628,0,0,1,2.84.5,10.99475,10.99475,0,0,0,2.45.51c.18.01.33.02.47.02a7.00712,7.00712,0,0,0,.82-.06c.65-.06,1.74-.17,4.3-.29a3.41047,3.41047,0,0,0,1.23-.26A1.50585,1.50585,0,0,1,21.95,30.07ZM20.56,16.68a2.36725,2.36725,0,0,1-3.14,1.04l-.21-.1-.9-.45-4.25-2.08a.50091.50091,0,0,0-.44.9l4.33,2.11c-.11.25-.21.52-.31.8-.47,1.42.26,3.03,1.97,4.31a10.4479,10.4479,0,0,0,.87.61005c.09.07.17.12.26.18.41.27.81.54,1.18.83A5.17738,5.17738,0,0,1,21.53,26.67a1.10826,1.10826,0,0,1,.06.11.70641.70641,0,0,1,.05.6.83922.83922,0,0,1-.55.3h-.01a3.00889,3.00889,0,0,1-.58.08c-2.58.12-3.69.23-4.35.3a5.01972,5.01972,0,0,1-.99005.04c-.04,0-.08-.01-.12-.01a9.65213,9.65213,0,0,1-2.24-.47,10.459,10.459,0,0,0-3.09-.54C9.44,27.07,9.17,27.07,8.92,27.07c-.41,0-.79.00995-1.12.03-.01-.06-.02-.13-.03-.19-.03-.2-.06-.39-.09-.58-.06-.42-.12-.83-.2-1.25995a19.31446,19.31446,0,0,1-.27-2.45,15.9213,15.9213,0,0,1,.04-2.3,15.73527,15.73527,0,0,1,.36-2.18,14.97909,14.97909,0,0,1,.68-2.09,19.78786,19.78786,0,0,1,.97-2.04A27.6886,27.6886,0,0,1,11.3,10.9a2.30157,2.30157,0,0,1,.68-.63,1.05358,1.05358,0,0,1,.1-.04h.01a.161.161,0,0,1,.09-.03,2.45711,2.45711,0,0,1,.68.04,4.56868,4.56868,0,0,1,1.07.28,4.49808,4.49808,0,0,1,1.02.53,1.91968,1.91968,0,0,1,.39.36l.00995.01a3.59567,3.59567,0,0,1,.7,1.41l-2.12-1.09a.507.507,0,0,0-.68.21.488.488,0,0,0,.22.67l2.88,1.49,1.11.57.67.35a.50848.50848,0,0,0,.63-.14l2.71-3.58.88391.08124.8559.07922Z"></path>
</svg>
