<svg xmlns="http://www.w3.org/2000/svg" viewBox="0 0 32 32" id="quran">
  <path d="M31.44 5.27a1.472 1.472 0 0 0-1.26-.3L29 5.23V3.88a1.512 1.512 0 0 0-.57-1.18 1.48 1.48 0 0 0-1.28-.28L16 5.1 4.85 2.42A1.498 1.498 0 0 0 3 3.88v1.35l-1.18-.26a1.465 1.465 0 0 0-1.26.3A1.47 1.47 0 0 0 0 6.44V21.5a1.508 1.508 0 0 0 1.19 1.47l.47.1v4.954a1.456 1.456 0 0 0 .592 1.174 1.503 1.503 0 0 0 .904.302 1.542 1.542 0 0 0 .405-.055l12.314-3.36.025.005a.204.204 0 0 0 .045.005l12.514 3.471a1.524 1.524 0 0 0 .405.056 1.5 1.5 0 0 0 1.496-1.5v-5.047l.45-.095A1.508 1.508 0 0 0 32 21.51V6.44a1.47 1.47 0 0 0-.56-1.17Zm-14.94.739L27.38 3.39a.512.512 0 0 1 .43.1.479.479 0 0 1 .19.39v12.336l-9.817 2.355a3.484 3.484 0 0 0-1.683.966Zm0 15.967a2.494 2.494 0 0 1 1.916-2.432l9.584-2.3v1.576a.505.505 0 0 1-.264.437.491.491 0 0 1-.119.05L16.5 21.978ZM4 3.88a.479.479 0 0 1 .19-.39.51.51 0 0 1 .31-.11.486.486 0 0 1 .12.01L15.5 6.009v13.528a3.485 3.485 0 0 0-1.683-.966L4 16.216Zm0 13.364 9.584 2.3a2.494 2.494 0 0 1 1.916 2.432L4.383 19.309a.491.491 0 0 1-.119-.05A.505.505 0 0 1 4 18.82Zm-.707 11.254a.505.505 0 0 1-.436-.083.487.487 0 0 1-.197-.391v-4.742l11.112 2.356Zm26.067-.377a.5.5 0 0 1-.633.483l-10.6-2.942 11.233-2.374ZM31 21.51a.503.503 0 0 1-.4.49l-13.81 2.923-.672.142-.015-.006-13.492-2.812L1.4 21.99a.503.503 0 0 1-.4-.49V6.44a.479.479 0 0 1 .19-.39.455.455 0 0 1 .31-.11.448.448 0 0 1 .11.01l1.39.3v12.571a1.443 1.443 0 0 0 .024.143 1.471 1.471 0 0 0 1.082 1.297c.016.005.028.015.044.02l.592.141L15.88 23.1a.446.446 0 0 0 .11.01h.02a.446.446 0 0 0 .11-.01l11.138-2.678.592-.142c.017-.004.03-.015.047-.02a1.469 1.469 0 0 0 1.074-1.269 1.449 1.449 0 0 0 .029-.17V6.25l1.39-.3a.506.506 0 0 1 .61.49Zm-12.196-7.642a.52.52 0 0 0 .12-.014l6.947-1.737a.5.5 0 0 0-.242-.97l-6.946 1.736a.5.5 0 0 0 .12.985Zm0-3a.52.52 0 0 0 .12-.014l6.947-1.737a.5.5 0 0 0-.242-.97l-6.946 1.736a.5.5 0 0 0 .12.985Zm0-3a.52.52 0 0 0 .12-.014l6.947-1.737a.5.5 0 0 0-.242-.97l-6.946 1.736a.5.5 0 0 0 .12.985Zm0 9a.52.52 0 0 0 .12-.014l6.947-1.737a.5.5 0 0 0-.242-.97l-6.946 1.736a.5.5 0 0 0 .12.985Zm-5.933-3.985-6.946-1.737a.5.5 0 0 0-.242.971l6.946 1.737a.52.52 0 0 0 .121.014.5.5 0 0 0 .121-.985Zm0-3L5.925 8.146a.5.5 0 0 0-.242.971l6.946 1.737a.52.52 0 0 0 .121.014.5.5 0 0 0 .121-.985Zm0-3L5.925 5.146a.5.5 0 0 0-.242.971l6.946 1.737a.52.52 0 0 0 .121.014.5.5 0 0 0 .121-.985Zm0 9-6.946-1.737a.5.5 0 0 0-.242.971l6.946 1.737a.52.52 0 0 0 .121.014.5.5 0 0 0 .121-.985Z"></path>
</svg>
